# xmcd CD database file
#
# Track frame offsets:
#	182
#	14900
#	27710
#	36640
#	48025
#	59012
#	70040
#	81540
#	94002
#	104927
#	115835
#	125747
#
# Disc length: 1813 seconds
#
# Revision: 0
# Processed by: cddbd v1.4PL0 Copyright (c) Steve Scherf et al.
# Submitted via: CDex 1.40Release
#
DISCID=bb07130c
DTITLE=Patsy Cline - Patsy Cline vol 2
DYEAR=1900
DGENRE=Country
TTITLE0=A Church, A Courtroom And Then Good-bye
TTITLE1=Yes, I Understand
TTITLE2=Try Again
TTITLE3=That Wonderful Someone
TTITLE4=Stop Look And Listen
TTITLE5=I CAn't Forget
TTITLE6=The Heart You Break May Be Your Own
TTITLE7=Finger Prints
TTITLE8=I Don't Wanna
TTITLE9=I Cried All The Way To The Alter
TTITLE10=I'm Blue Again
TTITLE11=How Can I Face Tomorrow
EXTD=ID3G: 2
EXTT0=
EXTT1=
EXTT2=
EXTT3=
EXTT4=
EXTT5=
EXTT6=
EXTT7=
EXTT8=
EXTT9=
EXTT10=
EXTT11=
PLAYORDER=
